# xmcd
#
# Track frame offsets:
#	150
#	18142
#	39007
#	58805
#	74827
#	101135
#	116750
#	140040
#	157870
#	180320
#	204405
#	223867
#	241660
#	262362
#	283102
#	301237
#	342537
#
# Disc length: 4795 seconds
#
# Revision: 0
# Processed by: cddbd v1.4PL0 Copyright (c) Steve Scherf et al.
# Submitted via: dBpowerAMP V4.0
#
DISCID=0312b911
DTITLE=Sky High - 25 Years of Madness - The Very Best of Sky High
DYEAR=2003
DGENRE=Blues
TTITLE0=I Ain't Beggin
TTITLE1=Don't Move
TTITLE2=Flowerchild
TTITLE3=Back To The Woods
TTITLE4=Fallen Angel
TTITLE5=We Need You
TTITLE6=Wild Woman
TTITLE7=Little Bit of Love
TTITLE8=Rodeo
TTITLE9=I Want You
TTITLE10=I'll Play The Blues For You
TTITLE11=On The Outside Blues
TTITLE12=Heavensent
TTITLE13=Tune Me to Your Station
TTITLE14=Fat Guitar
TTITLE15=Ships In The Night
TTITLE16=DATA
EXTD=
EXTT0=
EXTT1=
EXTT2=
EXTT3=
EXTT4=
EXTT5=
EXTT6=
EXTT7=
EXTT8=
EXTT9=
EXTT10=
EXTT11=
EXTT12=
EXTT13=
EXTT14=
EXTT15=
EXTT16=
PLAYORDER=
